<mxfile host="Electron" agent="Mozilla/5.0 (Windows NT 10.0; Win64; x64) AppleWebKit/537.36 (KHTML, like Gecko) draw.io/25.0.2 Chrome/128.0.6613.186 Electron/32.2.5 Safari/537.36" version="25.0.2">
  <diagram name="Page-1" id="1r1v1Ib6A8FEJkzL2onD">
    <mxGraphModel dx="1304" dy="876" grid="1" gridSize="10" guides="1" tooltips="1" connect="1" arrows="1" fold="1" page="1" pageScale="1" pageWidth="3300" pageHeight="4681" math="0" shadow="0">
      <root>
        <mxCell id="0" />
        <mxCell id="1" parent="0" />
        <mxCell id="C6lvempy2kkQ8w40UWus-1" value="&lt;h2&gt;Employee&lt;/h2&gt;" style="rounded=0;whiteSpace=wrap;html=1;" parent="1" vertex="1">
          <mxGeometry x="1000.0011809065795" y="419.99998757053766" width="140" height="60" as="geometry" />
        </mxCell>
        <mxCell id="C6lvempy2kkQ8w40UWus-2" value="DateOfBirth" style="ellipse;whiteSpace=wrap;html=1;" parent="1" vertex="1">
          <mxGeometry x="1090.0011809065795" y="279.99998757053766" width="130" height="60" as="geometry" />
        </mxCell>
        <mxCell id="C6lvempy2kkQ8w40UWus-3" value="Lname" style="ellipse;whiteSpace=wrap;html=1;" parent="1" vertex="1">
          <mxGeometry x="1438.75" y="189.99999999999997" width="86.92" height="70" as="geometry" />
        </mxCell>
        <mxCell id="C6lvempy2kkQ8w40UWus-4" value="Fname" style="ellipse;whiteSpace=wrap;html=1;" parent="1" vertex="1">
          <mxGeometry x="1310" y="220.39999999999998" width="106.92" height="70" as="geometry" />
        </mxCell>
        <mxCell id="C6lvempy2kkQ8w40UWus-5" value="Address" style="ellipse;whiteSpace=wrap;html=1;" parent="1" vertex="1">
          <mxGeometry x="1453.08" y="340" width="86.92" height="70" as="geometry" />
        </mxCell>
        <mxCell id="C6lvempy2kkQ8w40UWus-6" value="Employee_ID " style="ellipse;whiteSpace=wrap;html=1;align=center;fontStyle=4;" parent="1" vertex="1">
          <mxGeometry x="1280" y="450" width="80" height="70" as="geometry" />
        </mxCell>
        <mxCell id="C6lvempy2kkQ8w40UWus-7" value="" style="endArrow=none;html=1;rounded=0;exitX=0.702;exitY=0.022;exitDx=0;exitDy=0;exitPerimeter=0;" parent="1" source="C6lvempy2kkQ8w40UWus-1" target="C6lvempy2kkQ8w40UWus-2" edge="1">
          <mxGeometry width="50" height="50" relative="1" as="geometry">
            <mxPoint x="1110" y="400" as="sourcePoint" />
            <mxPoint x="1075" y="360" as="targetPoint" />
          </mxGeometry>
        </mxCell>
        <mxCell id="C6lvempy2kkQ8w40UWus-8" value="" style="endArrow=none;html=1;rounded=0;exitX=0.75;exitY=0;exitDx=0;exitDy=0;" parent="1" source="C6lvempy2kkQ8w40UWus-1" target="C6lvempy2kkQ8w40UWus-4" edge="1">
          <mxGeometry width="50" height="50" relative="1" as="geometry">
            <mxPoint x="1153.0811809065794" y="340.3999875705377" as="sourcePoint" />
            <mxPoint x="1203.0811809065794" y="290.3999875705377" as="targetPoint" />
          </mxGeometry>
        </mxCell>
        <mxCell id="C6lvempy2kkQ8w40UWus-9" value="" style="endArrow=none;html=1;rounded=0;exitX=1;exitY=0;exitDx=0;exitDy=0;entryX=0.5;entryY=1;entryDx=0;entryDy=0;" parent="1" source="C6lvempy2kkQ8w40UWus-1" target="C6lvempy2kkQ8w40UWus-3" edge="1">
          <mxGeometry width="50" height="50" relative="1" as="geometry">
            <mxPoint x="1253.0811809065794" y="350.3999875705377" as="sourcePoint" />
            <mxPoint x="1303.0811809065794" y="300.3999875705377" as="targetPoint" />
          </mxGeometry>
        </mxCell>
        <mxCell id="C6lvempy2kkQ8w40UWus-10" value="" style="endArrow=none;html=1;rounded=0;exitX=1;exitY=0.5;exitDx=0;exitDy=0;entryX=0;entryY=0.72;entryDx=0;entryDy=0;entryPerimeter=0;" parent="1" source="C6lvempy2kkQ8w40UWus-1" target="C6lvempy2kkQ8w40UWus-5" edge="1">
          <mxGeometry width="50" height="50" relative="1" as="geometry">
            <mxPoint x="1293.0811809065794" y="400.39998757053763" as="sourcePoint" />
            <mxPoint x="1343.0811809065794" y="350.3999875705377" as="targetPoint" />
          </mxGeometry>
        </mxCell>
        <mxCell id="C6lvempy2kkQ8w40UWus-11" value="" style="endArrow=none;html=1;rounded=0;exitX=1;exitY=0.75;exitDx=0;exitDy=0;entryX=0.043;entryY=0.26;entryDx=0;entryDy=0;entryPerimeter=0;" parent="1" source="C6lvempy2kkQ8w40UWus-1" target="C6lvempy2kkQ8w40UWus-13" edge="1">
          <mxGeometry width="50" height="50" relative="1" as="geometry">
            <mxPoint x="1223.0811809065794" y="470.39998757053763" as="sourcePoint" />
            <mxPoint x="1273.0811809065794" y="420.39998757053763" as="targetPoint" />
          </mxGeometry>
        </mxCell>
        <mxCell id="C6lvempy2kkQ8w40UWus-12" value="" style="endArrow=none;html=1;rounded=0;exitX=1;exitY=1;exitDx=0;exitDy=0;" parent="1" source="C6lvempy2kkQ8w40UWus-1" target="C6lvempy2kkQ8w40UWus-6" edge="1">
          <mxGeometry width="50" height="50" relative="1" as="geometry">
            <mxPoint x="1173.0811809065794" y="540.3999875705376" as="sourcePoint" />
            <mxPoint x="1223.0811809065794" y="490.39998757053763" as="targetPoint" />
          </mxGeometry>
        </mxCell>
        <mxCell id="C6lvempy2kkQ8w40UWus-13" value="&lt;code&gt;Supervisor_Emp_Id&lt;/code&gt;" style="ellipse;shape=doubleEllipse;margin=3;whiteSpace=wrap;html=1;align=center;" parent="1" vertex="1">
          <mxGeometry x="1400.0011809065795" y="424.99998757053766" width="140" height="50" as="geometry" />
        </mxCell>
        <mxCell id="C6lvempy2kkQ8w40UWus-15" value="Year" style="ellipse;whiteSpace=wrap;html=1;rotation=-15;" parent="1" vertex="1">
          <mxGeometry x="1015.0011809065795" y="224.99998757053763" width="85" height="35" as="geometry" />
        </mxCell>
        <mxCell id="C6lvempy2kkQ8w40UWus-16" value="Day" style="ellipse;whiteSpace=wrap;html=1;rotation=-15;" parent="1" vertex="1">
          <mxGeometry x="1177.5011809065795" y="169.9999875705377" width="82.5" height="35" as="geometry" />
        </mxCell>
        <mxCell id="C6lvempy2kkQ8w40UWus-17" value="Manth" style="ellipse;whiteSpace=wrap;html=1;rotation=-15;" parent="1" vertex="1">
          <mxGeometry x="1092.5011809065795" y="185.3999875705377" width="85" height="35" as="geometry" />
        </mxCell>
        <mxCell id="C6lvempy2kkQ8w40UWus-18" value="" style="endArrow=none;html=1;rounded=0;exitX=0;exitY=0;exitDx=0;exitDy=0;entryX=0.593;entryY=0.93;entryDx=0;entryDy=0;entryPerimeter=0;" parent="1" source="C6lvempy2kkQ8w40UWus-2" target="C6lvempy2kkQ8w40UWus-15" edge="1">
          <mxGeometry width="50" height="50" relative="1" as="geometry">
            <mxPoint x="933.0811809065796" y="280.3999875705377" as="sourcePoint" />
            <mxPoint x="983.0811809065796" y="230.3999875705377" as="targetPoint" />
          </mxGeometry>
        </mxCell>
        <mxCell id="C6lvempy2kkQ8w40UWus-19" value="" style="endArrow=none;html=1;rounded=0;exitX=0.377;exitY=0.05;exitDx=0;exitDy=0;exitPerimeter=0;entryX=0.5;entryY=1;entryDx=0;entryDy=0;" parent="1" source="C6lvempy2kkQ8w40UWus-2" target="C6lvempy2kkQ8w40UWus-17" edge="1">
          <mxGeometry width="50" height="50" relative="1" as="geometry">
            <mxPoint x="1013.0811809065796" y="250.3999875705377" as="sourcePoint" />
            <mxPoint x="1063.0811809065794" y="200.3999875705377" as="targetPoint" />
          </mxGeometry>
        </mxCell>
        <mxCell id="C6lvempy2kkQ8w40UWus-20" value="" style="endArrow=none;html=1;rounded=0;exitX=0.562;exitY=-0.017;exitDx=0;exitDy=0;exitPerimeter=0;entryX=0.209;entryY=1.05;entryDx=0;entryDy=0;entryPerimeter=0;" parent="1" source="C6lvempy2kkQ8w40UWus-2" target="C6lvempy2kkQ8w40UWus-16" edge="1">
          <mxGeometry width="50" height="50" relative="1" as="geometry">
            <mxPoint x="1093.0811809065794" y="230.3999875705377" as="sourcePoint" />
            <mxPoint x="1143.0811809065794" y="180.3999875705377" as="targetPoint" />
          </mxGeometry>
        </mxCell>
        <mxCell id="C6lvempy2kkQ8w40UWus-22" value="Bonus" style="ellipse;whiteSpace=wrap;html=1;" parent="1" vertex="1">
          <mxGeometry x="1170" y="500" width="80" height="70" as="geometry" />
        </mxCell>
        <mxCell id="C6lvempy2kkQ8w40UWus-23" value="" style="endArrow=none;html=1;rounded=0;exitX=0.5;exitY=0;exitDx=0;exitDy=0;entryX=0.946;entryY=0.943;entryDx=0;entryDy=0;entryPerimeter=0;" parent="1" source="C6lvempy2kkQ8w40UWus-22" target="C6lvempy2kkQ8w40UWus-1" edge="1">
          <mxGeometry width="50" height="50" relative="1" as="geometry">
            <mxPoint x="1093.0811809065794" y="510.39998757053763" as="sourcePoint" />
            <mxPoint x="1143.0811809065794" y="460.39998757053763" as="targetPoint" />
          </mxGeometry>
        </mxCell>
        <mxCell id="C6lvempy2kkQ8w40UWus-25" value="&lt;code&gt;Floor_No&lt;/code&gt;" style="ellipse;shape=doubleEllipse;margin=3;whiteSpace=wrap;html=1;align=center;" parent="1" vertex="1">
          <mxGeometry x="1438.7511809065795" y="279.99998757053766" width="140" height="50" as="geometry" />
        </mxCell>
        <mxCell id="C6lvempy2kkQ8w40UWus-26" value="" style="endArrow=none;html=1;rounded=0;entryX=0.107;entryY=0.88;entryDx=0;entryDy=0;entryPerimeter=0;exitX=0.992;exitY=0.11;exitDx=0;exitDy=0;exitPerimeter=0;" parent="1" source="C6lvempy2kkQ8w40UWus-1" target="C6lvempy2kkQ8w40UWus-25" edge="1">
          <mxGeometry width="50" height="50" relative="1" as="geometry">
            <mxPoint x="1170" y="410" as="sourcePoint" />
            <mxPoint x="1220" y="360" as="targetPoint" />
          </mxGeometry>
        </mxCell>
        <mxCell id="C6lvempy2kkQ8w40UWus-27" value="&lt;h2&gt;Floor&lt;/h2&gt;" style="rounded=0;whiteSpace=wrap;html=1;" parent="1" vertex="1">
          <mxGeometry x="210.00118090657952" y="479.99998757053766" width="140" height="60" as="geometry" />
        </mxCell>
        <mxCell id="C6lvempy2kkQ8w40UWus-28" value="&lt;code&gt;Floor_NUM&lt;/code&gt;" style="ellipse;whiteSpace=wrap;html=1;align=center;fontStyle=4;" parent="1" vertex="1">
          <mxGeometry x="19.999999999999943" y="430" width="80" height="70" as="geometry" />
        </mxCell>
        <mxCell id="C6lvempy2kkQ8w40UWus-30" value="" style="endArrow=none;html=1;rounded=0;exitX=0;exitY=0.25;exitDx=0;exitDy=0;" parent="1" source="C6lvempy2kkQ8w40UWus-27" target="C6lvempy2kkQ8w40UWus-28" edge="1">
          <mxGeometry width="50" height="50" relative="1" as="geometry">
            <mxPoint x="360.0011809065794" y="619.9999875705377" as="sourcePoint" />
            <mxPoint x="410.0011809065794" y="569.9999875705377" as="targetPoint" />
          </mxGeometry>
        </mxCell>
        <mxCell id="C6lvempy2kkQ8w40UWus-31" value="No_Of_Blocks" style="ellipse;whiteSpace=wrap;html=1;" parent="1" vertex="1">
          <mxGeometry y="515.4" width="100" height="70" as="geometry" />
        </mxCell>
        <mxCell id="C6lvempy2kkQ8w40UWus-32" value="" style="endArrow=none;html=1;rounded=0;entryX=0;entryY=0.5;entryDx=0;entryDy=0;exitX=0.925;exitY=0.286;exitDx=0;exitDy=0;exitPerimeter=0;" parent="1" source="C6lvempy2kkQ8w40UWus-31" target="C6lvempy2kkQ8w40UWus-27" edge="1">
          <mxGeometry width="50" height="50" relative="1" as="geometry">
            <mxPoint x="120" y="530" as="sourcePoint" />
            <mxPoint x="330.0011809065794" y="539.9999875705377" as="targetPoint" />
          </mxGeometry>
        </mxCell>
        <mxCell id="C6lvempy2kkQ8w40UWus-34" value="&lt;h2&gt;User&lt;/h2&gt;" style="rounded=0;whiteSpace=wrap;html=1;" parent="1" vertex="1">
          <mxGeometry x="500.0011809065795" y="802.2999875705376" width="140" height="60" as="geometry" />
        </mxCell>
        <mxCell id="C6lvempy2kkQ8w40UWus-35" value="&lt;code&gt;SSN&lt;/code&gt;" style="ellipse;whiteSpace=wrap;html=1;align=center;fontStyle=4;" parent="1" vertex="1">
          <mxGeometry x="309.99999999999994" y="762.3" width="80" height="70" as="geometry" />
        </mxCell>
        <mxCell id="C6lvempy2kkQ8w40UWus-36" value="" style="endArrow=none;html=1;rounded=0;exitX=0;exitY=0.25;exitDx=0;exitDy=0;" parent="1" source="C6lvempy2kkQ8w40UWus-34" target="C6lvempy2kkQ8w40UWus-35" edge="1">
          <mxGeometry width="50" height="50" relative="1" as="geometry">
            <mxPoint x="650.0011809065794" y="942.2999875705376" as="sourcePoint" />
            <mxPoint x="700.0011809065794" y="892.2999875705376" as="targetPoint" />
          </mxGeometry>
        </mxCell>
        <mxCell id="C6lvempy2kkQ8w40UWus-37" value="Name" style="ellipse;whiteSpace=wrap;html=1;" parent="1" vertex="1">
          <mxGeometry x="320" y="837.6999999999999" width="80" height="70" as="geometry" />
        </mxCell>
        <mxCell id="C6lvempy2kkQ8w40UWus-38" value="" style="endArrow=none;html=1;rounded=0;entryX=0;entryY=0.5;entryDx=0;entryDy=0;exitX=0.925;exitY=0.286;exitDx=0;exitDy=0;exitPerimeter=0;" parent="1" source="C6lvempy2kkQ8w40UWus-37" target="C6lvempy2kkQ8w40UWus-34" edge="1">
          <mxGeometry width="50" height="50" relative="1" as="geometry">
            <mxPoint x="410" y="852.3" as="sourcePoint" />
            <mxPoint x="620.0011809065794" y="862.2999875705376" as="targetPoint" />
          </mxGeometry>
        </mxCell>
        <mxCell id="C6lvempy2kkQ8w40UWus-39" value="Email" style="ellipse;whiteSpace=wrap;html=1;" parent="1" vertex="1">
          <mxGeometry x="370" y="907.6999999999999" width="80" height="70" as="geometry" />
        </mxCell>
        <mxCell id="C6lvempy2kkQ8w40UWus-40" value="" style="endArrow=none;html=1;rounded=0;exitX=0.925;exitY=0.286;exitDx=0;exitDy=0;exitPerimeter=0;entryX=0;entryY=0.75;entryDx=0;entryDy=0;" parent="1" source="C6lvempy2kkQ8w40UWus-39" target="C6lvempy2kkQ8w40UWus-34" edge="1">
          <mxGeometry width="50" height="50" relative="1" as="geometry">
            <mxPoint x="460" y="912.3" as="sourcePoint" />
            <mxPoint x="490" y="852.3" as="targetPoint" />
          </mxGeometry>
        </mxCell>
        <mxCell id="C6lvempy2kkQ8w40UWus-41" value="&lt;h2&gt;Book&lt;/h2&gt;" style="rounded=0;whiteSpace=wrap;html=1;" parent="1" vertex="1">
          <mxGeometry x="1270.0011809065795" y="837.6999875705377" width="140" height="60" as="geometry" />
        </mxCell>
        <mxCell id="C6lvempy2kkQ8w40UWus-42" value="&lt;code&gt;Book_Id&lt;/code&gt;" style="ellipse;whiteSpace=wrap;html=1;align=center;fontStyle=4;" parent="1" vertex="1">
          <mxGeometry x="1420" y="732.3" width="80" height="70" as="geometry" />
        </mxCell>
        <mxCell id="C6lvempy2kkQ8w40UWus-43" value="" style="endArrow=none;html=1;rounded=0;exitX=0.579;exitY=0;exitDx=0;exitDy=0;exitPerimeter=0;" parent="1" source="C6lvempy2kkQ8w40UWus-41" target="C6lvempy2kkQ8w40UWus-42" edge="1">
          <mxGeometry width="50" height="50" relative="1" as="geometry">
            <mxPoint x="1425.0011809065795" y="989.9999875705377" as="sourcePoint" />
            <mxPoint x="1475.0011809065795" y="939.9999875705377" as="targetPoint" />
          </mxGeometry>
        </mxCell>
        <mxCell id="C6lvempy2kkQ8w40UWus-44" value="Title" style="ellipse;whiteSpace=wrap;html=1;" parent="1" vertex="1">
          <mxGeometry x="1468.75" y="907.7" width="80" height="70" as="geometry" />
        </mxCell>
        <mxCell id="C6lvempy2kkQ8w40UWus-45" value="" style="endArrow=none;html=1;rounded=0;entryX=0.992;entryY=0.875;entryDx=0;entryDy=0;exitX=0.167;exitY=0.076;exitDx=0;exitDy=0;exitPerimeter=0;entryPerimeter=0;" parent="1" source="C6lvempy2kkQ8w40UWus-44" target="C6lvempy2kkQ8w40UWus-41" edge="1">
          <mxGeometry width="50" height="50" relative="1" as="geometry">
            <mxPoint x="1185" y="900" as="sourcePoint" />
            <mxPoint x="1395.0011809065795" y="909.9999875705377" as="targetPoint" />
          </mxGeometry>
        </mxCell>
        <mxCell id="C6lvempy2kkQ8w40UWus-48" value="&lt;code&gt;Shelf_Code&lt;/code&gt;" style="ellipse;shape=doubleEllipse;margin=3;whiteSpace=wrap;html=1;align=center;" parent="1" vertex="1">
          <mxGeometry x="1510.0011809065795" y="867.6999875705377" width="140" height="50" as="geometry" />
        </mxCell>
        <mxCell id="C6lvempy2kkQ8w40UWus-49" value="&lt;code&gt;Category_Id&lt;/code&gt;" style="ellipse;shape=doubleEllipse;margin=3;whiteSpace=wrap;html=1;align=center;" parent="1" vertex="1">
          <mxGeometry x="1510.0011809065795" y="807.2999875705377" width="140" height="50" as="geometry" />
        </mxCell>
        <mxCell id="C6lvempy2kkQ8w40UWus-50" value="&lt;code&gt;Publisher_Id&lt;/code&gt;" style="ellipse;shape=doubleEllipse;margin=3;whiteSpace=wrap;html=1;align=center;" parent="1" vertex="1">
          <mxGeometry x="1525.6711809065796" y="752.2999875705376" width="140" height="50" as="geometry" />
        </mxCell>
        <mxCell id="C6lvempy2kkQ8w40UWus-51" value="" style="endArrow=none;html=1;rounded=0;exitX=0.829;exitY=-0.05;exitDx=0;exitDy=0;exitPerimeter=0;entryX=0;entryY=1;entryDx=0;entryDy=0;" parent="1" source="C6lvempy2kkQ8w40UWus-41" target="C6lvempy2kkQ8w40UWus-50" edge="1">
          <mxGeometry width="50" height="50" relative="1" as="geometry">
            <mxPoint x="1400" y="850" as="sourcePoint" />
            <mxPoint x="1450" y="800" as="targetPoint" />
          </mxGeometry>
        </mxCell>
        <mxCell id="C6lvempy2kkQ8w40UWus-52" value="" style="endArrow=none;html=1;rounded=0;exitX=1;exitY=0.5;exitDx=0;exitDy=0;entryX=0.068;entryY=0.677;entryDx=0;entryDy=0;entryPerimeter=0;" parent="1" source="C6lvempy2kkQ8w40UWus-41" target="C6lvempy2kkQ8w40UWus-49" edge="1">
          <mxGeometry width="50" height="50" relative="1" as="geometry">
            <mxPoint x="1390" y="920" as="sourcePoint" />
            <mxPoint x="1440" y="870" as="targetPoint" />
          </mxGeometry>
        </mxCell>
        <mxCell id="C6lvempy2kkQ8w40UWus-53" value="" style="endArrow=none;html=1;rounded=0;exitX=1;exitY=0.75;exitDx=0;exitDy=0;entryX=0.236;entryY=0.092;entryDx=0;entryDy=0;entryPerimeter=0;" parent="1" source="C6lvempy2kkQ8w40UWus-41" target="C6lvempy2kkQ8w40UWus-48" edge="1">
          <mxGeometry width="50" height="50" relative="1" as="geometry">
            <mxPoint x="1400" y="1000" as="sourcePoint" />
            <mxPoint x="1450" y="950" as="targetPoint" />
          </mxGeometry>
        </mxCell>
        <mxCell id="C6lvempy2kkQ8w40UWus-54" value="&lt;h2&gt;Category&lt;/h2&gt;" style="rounded=0;whiteSpace=wrap;html=1;" parent="1" vertex="1">
          <mxGeometry x="1130.0011809065795" y="674.5999875705375" width="140" height="60" as="geometry" />
        </mxCell>
        <mxCell id="C6lvempy2kkQ8w40UWus-55" value="&lt;code&gt;Category_Id&lt;/code&gt;" style="ellipse;whiteSpace=wrap;html=1;align=center;fontStyle=4;" parent="1" vertex="1">
          <mxGeometry x="1270" y="569.9999999999999" width="105" height="70" as="geometry" />
        </mxCell>
        <mxCell id="C6lvempy2kkQ8w40UWus-56" value="" style="endArrow=none;html=1;rounded=0;exitX=1;exitY=0.25;exitDx=0;exitDy=0;" parent="1" source="C6lvempy2kkQ8w40UWus-54" target="C6lvempy2kkQ8w40UWus-55" edge="1">
          <mxGeometry width="50" height="50" relative="1" as="geometry">
            <mxPoint x="1280.0011809065795" y="814.5999875705375" as="sourcePoint" />
            <mxPoint x="1330.0011809065795" y="764.5999875705375" as="targetPoint" />
          </mxGeometry>
        </mxCell>
        <mxCell id="C6lvempy2kkQ8w40UWus-57" value="Cat_Name" style="ellipse;whiteSpace=wrap;html=1;" parent="1" vertex="1">
          <mxGeometry x="1350" y="620" width="95" height="70" as="geometry" />
        </mxCell>
        <mxCell id="C6lvempy2kkQ8w40UWus-58" value="" style="endArrow=none;html=1;rounded=0;entryX=1;entryY=0.5;entryDx=0;entryDy=0;exitX=0;exitY=1;exitDx=0;exitDy=0;" parent="1" source="C6lvempy2kkQ8w40UWus-57" target="C6lvempy2kkQ8w40UWus-54" edge="1">
          <mxGeometry width="50" height="50" relative="1" as="geometry">
            <mxPoint x="1040" y="724.5999999999999" as="sourcePoint" />
            <mxPoint x="1250.0011809065795" y="734.5999875705375" as="targetPoint" />
          </mxGeometry>
        </mxCell>
        <mxCell id="C6lvempy2kkQ8w40UWus-62" value="&lt;code&gt;Shelf_Code&lt;/code&gt;" style="ellipse;whiteSpace=wrap;html=1;align=center;fontStyle=4;" parent="1" vertex="1">
          <mxGeometry x="2.5" y="1280" width="105" height="70" as="geometry" />
        </mxCell>
        <mxCell id="C6lvempy2kkQ8w40UWus-63" value="" style="endArrow=none;html=1;rounded=0;exitX=0;exitY=0;exitDx=0;exitDy=15;exitPerimeter=0;" parent="1" source="gjSm_xTrsxoRiY1hp_CM-6" target="C6lvempy2kkQ8w40UWus-62" edge="1">
          <mxGeometry width="50" height="50" relative="1" as="geometry">
            <mxPoint x="260.0011809065795" y="1327.6999875705378" as="sourcePoint" />
            <mxPoint x="460.0011809065795" y="1387.6999875705378" as="targetPoint" />
          </mxGeometry>
        </mxCell>
        <mxCell id="C6lvempy2kkQ8w40UWus-65" value="" style="endArrow=none;html=1;rounded=0;entryX=0;entryY=0;entryDx=0;entryDy=45;exitX=1;exitY=0.5;exitDx=0;exitDy=0;entryPerimeter=0;" parent="1" source="C6lvempy2kkQ8w40UWus-66" target="gjSm_xTrsxoRiY1hp_CM-6" edge="1">
          <mxGeometry width="50" height="50" relative="1" as="geometry">
            <mxPoint x="513.6414522845075" y="1343.5525529062684" as="sourcePoint" />
            <mxPoint x="260.0011809065795" y="1342.6999875705378" as="targetPoint" />
          </mxGeometry>
        </mxCell>
        <mxCell id="C6lvempy2kkQ8w40UWus-66" value="&lt;code&gt;Floor_No&lt;/code&gt;" style="ellipse;shape=doubleEllipse;margin=3;whiteSpace=wrap;html=1;align=center;" parent="1" vertex="1">
          <mxGeometry x="32.50118090657952" y="1369.9999875705375" width="140" height="50" as="geometry" />
        </mxCell>
        <mxCell id="C6lvempy2kkQ8w40UWus-67" value="&lt;h2&gt;Authors &lt;/h2&gt;" style="rounded=0;whiteSpace=wrap;html=1;" parent="1" vertex="1">
          <mxGeometry x="550.0011809065795" y="1037.6999875705376" width="140" height="60" as="geometry" />
        </mxCell>
        <mxCell id="C6lvempy2kkQ8w40UWus-68" value="&lt;code&gt;Author_Id&lt;/code&gt;" style="ellipse;whiteSpace=wrap;html=1;align=center;fontStyle=4;" parent="1" vertex="1">
          <mxGeometry x="312.5" y="1007.7" width="105" height="70" as="geometry" />
        </mxCell>
        <mxCell id="C6lvempy2kkQ8w40UWus-69" value="" style="endArrow=none;html=1;rounded=0;exitX=0;exitY=0.25;exitDx=0;exitDy=0;" parent="1" source="C6lvempy2kkQ8w40UWus-67" target="C6lvempy2kkQ8w40UWus-68" edge="1">
          <mxGeometry width="50" height="50" relative="1" as="geometry">
            <mxPoint x="677.5011809065794" y="1187.6999875705376" as="sourcePoint" />
            <mxPoint x="727.5011809065794" y="1137.6999875705376" as="targetPoint" />
          </mxGeometry>
        </mxCell>
        <mxCell id="C6lvempy2kkQ8w40UWus-70" value="Name" style="ellipse;whiteSpace=wrap;html=1;" parent="1" vertex="1">
          <mxGeometry x="332.5" y="1083.1000000000001" width="95" height="70" as="geometry" />
        </mxCell>
        <mxCell id="C6lvempy2kkQ8w40UWus-71" value="" style="endArrow=none;html=1;rounded=0;entryX=0;entryY=0.5;entryDx=0;entryDy=0;exitX=0.925;exitY=0.286;exitDx=0;exitDy=0;exitPerimeter=0;" parent="1" source="C6lvempy2kkQ8w40UWus-70" target="C6lvempy2kkQ8w40UWus-67" edge="1">
          <mxGeometry width="50" height="50" relative="1" as="geometry">
            <mxPoint x="437.5" y="1097.7" as="sourcePoint" />
            <mxPoint x="647.5011809065794" y="1107.6999875705376" as="targetPoint" />
          </mxGeometry>
        </mxCell>
        <mxCell id="C6lvempy2kkQ8w40UWus-73" value="&lt;code&gt;Publisher_Id&lt;/code&gt;" style="ellipse;whiteSpace=wrap;html=1;align=center;fontStyle=4;" parent="1" vertex="1">
          <mxGeometry x="1578.75" y="1080" width="125" height="90" as="geometry" />
        </mxCell>
        <mxCell id="C6lvempy2kkQ8w40UWus-74" value="" style="endArrow=none;html=1;rounded=0;exitX=1;exitY=0.5;exitDx=0;exitDy=0;" parent="1" source="C6lvempy2kkQ8w40UWus-96" target="C6lvempy2kkQ8w40UWus-73" edge="1">
          <mxGeometry width="50" height="50" relative="1" as="geometry">
            <mxPoint x="1402.5011809065795" y="1234.9999875705375" as="sourcePoint" />
            <mxPoint x="1602.5011809065795" y="1309.9999875705375" as="targetPoint" />
          </mxGeometry>
        </mxCell>
        <mxCell id="C6lvempy2kkQ8w40UWus-75" value="Name" style="ellipse;whiteSpace=wrap;html=1;" parent="1" vertex="1">
          <mxGeometry x="1638.75" y="1200" width="95" height="70" as="geometry" />
        </mxCell>
        <mxCell id="C6lvempy2kkQ8w40UWus-76" value="" style="endArrow=none;html=1;rounded=0;entryX=1;entryY=0.75;entryDx=0;entryDy=0;exitX=0.125;exitY=0.741;exitDx=0;exitDy=0;exitPerimeter=0;" parent="1" source="C6lvempy2kkQ8w40UWus-75" target="C6lvempy2kkQ8w40UWus-96" edge="1">
          <mxGeometry width="50" height="50" relative="1" as="geometry">
            <mxPoint x="1312.5" y="1270" as="sourcePoint" />
            <mxPoint x="1402.5011809065795" y="1249.9999875705375" as="targetPoint" />
          </mxGeometry>
        </mxCell>
        <mxCell id="C6lvempy2kkQ8w40UWus-77" value="Manages " style="shape=rhombus;perimeter=rhombusPerimeter;whiteSpace=wrap;html=1;align=center;" parent="1" vertex="1">
          <mxGeometry x="590" y="490" width="120" height="60" as="geometry" />
        </mxCell>
        <mxCell id="C6lvempy2kkQ8w40UWus-78" value="" style="endArrow=none;html=1;rounded=0;exitX=1;exitY=0.5;exitDx=0;exitDy=0;entryX=0;entryY=0.5;entryDx=0;entryDy=0;shape=link;" parent="1" source="C6lvempy2kkQ8w40UWus-27" target="C6lvempy2kkQ8w40UWus-77" edge="1">
          <mxGeometry width="50" height="50" relative="1" as="geometry">
            <mxPoint x="660" y="535" as="sourcePoint" />
            <mxPoint x="540" y="470" as="targetPoint" />
          </mxGeometry>
        </mxCell>
        <mxCell id="C6lvempy2kkQ8w40UWus-79" value="" style="endArrow=none;html=1;rounded=0;exitX=1;exitY=0.5;exitDx=0;exitDy=0;entryX=0;entryY=0.75;entryDx=0;entryDy=0;" parent="1" source="C6lvempy2kkQ8w40UWus-77" target="C6lvempy2kkQ8w40UWus-1" edge="1">
          <mxGeometry width="50" height="50" relative="1" as="geometry">
            <mxPoint x="800" y="477.5" as="sourcePoint" />
            <mxPoint x="1000" y="452.5" as="targetPoint" />
          </mxGeometry>
        </mxCell>
        <mxCell id="C6lvempy2kkQ8w40UWus-80" value="Records   " style="shape=rhombus;perimeter=rhombusPerimeter;whiteSpace=wrap;html=1;align=center;" parent="1" vertex="1">
          <mxGeometry x="700" y="674.6" width="120" height="60" as="geometry" />
        </mxCell>
        <mxCell id="C6lvempy2kkQ8w40UWus-81" value="" style="endArrow=none;html=1;rounded=0;exitX=1;exitY=0.25;exitDx=0;exitDy=0;entryX=0;entryY=0.5;entryDx=0;entryDy=0;" parent="1" source="C6lvempy2kkQ8w40UWus-34" target="C6lvempy2kkQ8w40UWus-80" edge="1">
          <mxGeometry width="50" height="50" relative="1" as="geometry">
            <mxPoint x="500" y="844.6" as="sourcePoint" />
            <mxPoint x="700" y="819.6" as="targetPoint" />
          </mxGeometry>
        </mxCell>
        <mxCell id="C6lvempy2kkQ8w40UWus-151" value="1" style="edgeLabel;html=1;align=center;verticalAlign=middle;resizable=0;points=[];" parent="C6lvempy2kkQ8w40UWus-81" vertex="1" connectable="0">
          <mxGeometry x="0.0896" y="-3" relative="1" as="geometry">
            <mxPoint as="offset" />
          </mxGeometry>
        </mxCell>
        <mxCell id="C6lvempy2kkQ8w40UWus-82" value="" style="endArrow=none;html=1;rounded=0;exitX=0.5;exitY=0;exitDx=0;exitDy=0;entryX=0;entryY=1;entryDx=0;entryDy=0;shape=link;" parent="1" source="C6lvempy2kkQ8w40UWus-80" target="C6lvempy2kkQ8w40UWus-1" edge="1">
          <mxGeometry width="50" height="50" relative="1" as="geometry">
            <mxPoint x="790" y="812.1" as="sourcePoint" />
            <mxPoint x="1000" y="774.6" as="targetPoint" />
          </mxGeometry>
        </mxCell>
        <mxCell id="C6lvempy2kkQ8w40UWus-150" value="M" style="edgeLabel;html=1;align=center;verticalAlign=middle;resizable=0;points=[];" parent="C6lvempy2kkQ8w40UWus-82" vertex="1" connectable="0">
          <mxGeometry x="0.2419" y="-1" relative="1" as="geometry">
            <mxPoint as="offset" />
          </mxGeometry>
        </mxCell>
        <mxCell id="C6lvempy2kkQ8w40UWus-83" value="Borrows  " style="shape=rhombus;perimeter=rhombusPerimeter;whiteSpace=wrap;html=1;align=center;" parent="1" vertex="1">
          <mxGeometry x="810" y="790" width="120" height="60" as="geometry" />
        </mxCell>
        <mxCell id="C6lvempy2kkQ8w40UWus-84" value="" style="endArrow=none;html=1;rounded=0;exitX=1;exitY=0.75;exitDx=0;exitDy=0;entryX=0;entryY=0.5;entryDx=0;entryDy=0;shape=link;" parent="1" source="C6lvempy2kkQ8w40UWus-34" target="C6lvempy2kkQ8w40UWus-83" edge="1">
          <mxGeometry width="50" height="50" relative="1" as="geometry">
            <mxPoint x="500" y="874.6" as="sourcePoint" />
            <mxPoint x="700" y="849.6" as="targetPoint" />
          </mxGeometry>
        </mxCell>
        <mxCell id="C6lvempy2kkQ8w40UWus-132" value="M" style="edgeLabel;html=1;align=center;verticalAlign=middle;resizable=0;points=[];" parent="C6lvempy2kkQ8w40UWus-84" vertex="1" connectable="0">
          <mxGeometry x="-0.5607" y="2" relative="1" as="geometry">
            <mxPoint as="offset" />
          </mxGeometry>
        </mxCell>
        <mxCell id="C6lvempy2kkQ8w40UWus-85" value="" style="endArrow=none;html=1;rounded=0;exitX=1;exitY=0.5;exitDx=0;exitDy=0;entryX=0;entryY=0.25;entryDx=0;entryDy=0;shape=link;" parent="1" source="C6lvempy2kkQ8w40UWus-83" target="C6lvempy2kkQ8w40UWus-41" edge="1">
          <mxGeometry width="50" height="50" relative="1" as="geometry">
            <mxPoint x="790" y="842.1" as="sourcePoint" />
            <mxPoint x="1000" y="804.6" as="targetPoint" />
          </mxGeometry>
        </mxCell>
        <mxCell id="gjSm_xTrsxoRiY1hp_CM-3" value="M" style="edgeLabel;html=1;align=center;verticalAlign=middle;resizable=0;points=[];" vertex="1" connectable="0" parent="C6lvempy2kkQ8w40UWus-85">
          <mxGeometry x="-0.4448" y="-1" relative="1" as="geometry">
            <mxPoint as="offset" />
          </mxGeometry>
        </mxCell>
        <mxCell id="C6lvempy2kkQ8w40UWus-93" value="Has Authors " style="shape=rhombus;perimeter=rhombusPerimeter;whiteSpace=wrap;html=1;align=center;" parent="1" vertex="1">
          <mxGeometry x="730" y="970.0000000000001" width="120" height="60" as="geometry" />
        </mxCell>
        <mxCell id="C6lvempy2kkQ8w40UWus-94" value="" style="endArrow=none;html=1;rounded=0;exitX=1;exitY=0.5;exitDx=0;exitDy=0;entryX=0.339;entryY=0.894;entryDx=0;entryDy=0;entryPerimeter=0;" parent="1" source="C6lvempy2kkQ8w40UWus-67" target="C6lvempy2kkQ8w40UWus-93" edge="1">
          <mxGeometry width="50" height="50" relative="1" as="geometry">
            <mxPoint x="790" y="1127.7" as="sourcePoint" />
            <mxPoint x="1000" y="977.7" as="targetPoint" />
          </mxGeometry>
        </mxCell>
        <mxCell id="C6lvempy2kkQ8w40UWus-129" value="M" style="edgeLabel;html=1;align=center;verticalAlign=middle;resizable=0;points=[];" parent="C6lvempy2kkQ8w40UWus-94" vertex="1" connectable="0">
          <mxGeometry x="0.2165" y="-4" relative="1" as="geometry">
            <mxPoint as="offset" />
          </mxGeometry>
        </mxCell>
        <mxCell id="C6lvempy2kkQ8w40UWus-95" value="" style="endArrow=none;html=1;rounded=0;exitX=1;exitY=0.5;exitDx=0;exitDy=0;" parent="1" source="C6lvempy2kkQ8w40UWus-93" edge="1">
          <mxGeometry width="50" height="50" relative="1" as="geometry">
            <mxPoint x="810" y="1117.5" as="sourcePoint" />
            <mxPoint x="1270" y="870" as="targetPoint" />
          </mxGeometry>
        </mxCell>
        <mxCell id="C6lvempy2kkQ8w40UWus-128" value="M" style="edgeLabel;html=1;align=center;verticalAlign=middle;resizable=0;points=[];" parent="C6lvempy2kkQ8w40UWus-95" vertex="1" connectable="0">
          <mxGeometry x="0.2679" y="3" relative="1" as="geometry">
            <mxPoint as="offset" />
          </mxGeometry>
        </mxCell>
        <mxCell id="C6lvempy2kkQ8w40UWus-96" value="&lt;h2&gt;Publisher&lt;/h2&gt;" style="rounded=0;whiteSpace=wrap;html=1;" parent="1" vertex="1">
          <mxGeometry x="1400.0011809065795" y="1209.9999875705375" width="140" height="60" as="geometry" />
        </mxCell>
        <mxCell id="C6lvempy2kkQ8w40UWus-97" value="Has Publisher " style="shape=rhombus;perimeter=rhombusPerimeter;whiteSpace=wrap;html=1;align=center;" parent="1" vertex="1">
          <mxGeometry x="1180" y="1045.4" width="120" height="60" as="geometry" />
        </mxCell>
        <mxCell id="C6lvempy2kkQ8w40UWus-98" value="" style="endArrow=none;html=1;rounded=0;exitX=0;exitY=0.25;exitDx=0;exitDy=0;entryX=0.651;entryY=0.96;entryDx=0;entryDy=0;entryPerimeter=0;shape=link;" parent="1" source="C6lvempy2kkQ8w40UWus-96" target="C6lvempy2kkQ8w40UWus-97" edge="1">
          <mxGeometry width="50" height="50" relative="1" as="geometry">
            <mxPoint x="997.5" y="1130.4" as="sourcePoint" />
            <mxPoint x="1197.5" y="1105.4" as="targetPoint" />
          </mxGeometry>
        </mxCell>
        <mxCell id="C6lvempy2kkQ8w40UWus-134" value="M" style="edgeLabel;html=1;align=center;verticalAlign=middle;resizable=0;points=[];" parent="C6lvempy2kkQ8w40UWus-98" vertex="1" connectable="0">
          <mxGeometry x="0.2728" y="-2" relative="1" as="geometry">
            <mxPoint as="offset" />
          </mxGeometry>
        </mxCell>
        <mxCell id="C6lvempy2kkQ8w40UWus-99" value="" style="endArrow=none;html=1;rounded=0;exitX=0.5;exitY=0;exitDx=0;exitDy=0;" parent="1" source="C6lvempy2kkQ8w40UWus-97" target="C6lvempy2kkQ8w40UWus-41" edge="1">
          <mxGeometry width="50" height="50" relative="1" as="geometry">
            <mxPoint x="1190" y="1045.4" as="sourcePoint" />
            <mxPoint x="1290" y="905" as="targetPoint" />
          </mxGeometry>
        </mxCell>
        <mxCell id="C6lvempy2kkQ8w40UWus-136" value="1" style="edgeLabel;html=1;align=center;verticalAlign=middle;resizable=0;points=[];" parent="C6lvempy2kkQ8w40UWus-99" vertex="1" connectable="0">
          <mxGeometry x="-0.2753" y="1" relative="1" as="geometry">
            <mxPoint as="offset" />
          </mxGeometry>
        </mxCell>
        <mxCell id="C6lvempy2kkQ8w40UWus-100" value="Classified Under " style="shape=rhombus;perimeter=rhombusPerimeter;whiteSpace=wrap;html=1;align=center;" parent="1" vertex="1">
          <mxGeometry x="945" y="720" width="120" height="60" as="geometry" />
        </mxCell>
        <mxCell id="C6lvempy2kkQ8w40UWus-101" value="" style="endArrow=none;html=1;rounded=0;entryX=0.5;entryY=1;entryDx=0;entryDy=0;exitX=0.25;exitY=0;exitDx=0;exitDy=0;" parent="1" source="C6lvempy2kkQ8w40UWus-41" target="C6lvempy2kkQ8w40UWus-100" edge="1">
          <mxGeometry width="50" height="50" relative="1" as="geometry">
            <mxPoint x="587.56" y="782.7199999999999" as="sourcePoint" />
            <mxPoint x="787.56" y="757.7199999999999" as="targetPoint" />
          </mxGeometry>
        </mxCell>
        <mxCell id="C6lvempy2kkQ8w40UWus-131" value="1" style="edgeLabel;html=1;align=center;verticalAlign=middle;resizable=0;points=[];" parent="C6lvempy2kkQ8w40UWus-101" vertex="1" connectable="0">
          <mxGeometry x="-0.164" y="-1" relative="1" as="geometry">
            <mxPoint as="offset" />
          </mxGeometry>
        </mxCell>
        <mxCell id="C6lvempy2kkQ8w40UWus-102" value="" style="endArrow=none;html=1;rounded=0;exitX=0.5;exitY=0;exitDx=0;exitDy=0;entryX=0;entryY=0.257;entryDx=0;entryDy=0;entryPerimeter=0;shape=link;" parent="1" source="C6lvempy2kkQ8w40UWus-100" target="C6lvempy2kkQ8w40UWus-54" edge="1">
          <mxGeometry width="50" height="50" relative="1" as="geometry">
            <mxPoint x="877.56" y="750.2199999999999" as="sourcePoint" />
            <mxPoint x="1130.00118090658" y="699.9999875705375" as="targetPoint" />
          </mxGeometry>
        </mxCell>
        <mxCell id="C6lvempy2kkQ8w40UWus-130" value="M" style="edgeLabel;html=1;align=center;verticalAlign=middle;resizable=0;points=[];" parent="C6lvempy2kkQ8w40UWus-102" vertex="1" connectable="0">
          <mxGeometry x="0.2281" y="-3" relative="1" as="geometry">
            <mxPoint x="1" as="offset" />
          </mxGeometry>
        </mxCell>
        <mxCell id="C6lvempy2kkQ8w40UWus-104" value="Assigned to Shelf " style="shape=rhombus;perimeter=rhombusPerimeter;whiteSpace=wrap;html=1;align=center;" parent="1" vertex="1">
          <mxGeometry x="920" y="1070" width="120" height="72.3" as="geometry" />
        </mxCell>
        <mxCell id="C6lvempy2kkQ8w40UWus-105" value="" style="endArrow=none;html=1;rounded=0;exitX=0;exitY=0;exitDx=100;exitDy=45;entryX=0;entryY=0.5;entryDx=0;entryDy=0;exitPerimeter=0;" parent="1" source="gjSm_xTrsxoRiY1hp_CM-6" target="C6lvempy2kkQ8w40UWus-104" edge="1">
          <mxGeometry width="50" height="50" relative="1" as="geometry">
            <mxPoint x="400.0011809065795" y="1342.6999875705378" as="sourcePoint" />
            <mxPoint x="980" y="947.3" as="targetPoint" />
          </mxGeometry>
        </mxCell>
        <mxCell id="C6lvempy2kkQ8w40UWus-106" value="" style="endArrow=none;html=1;rounded=0;exitX=1;exitY=0.5;exitDx=0;exitDy=0;shape=link;" parent="1" source="C6lvempy2kkQ8w40UWus-104" target="C6lvempy2kkQ8w40UWus-41" edge="1">
          <mxGeometry width="50" height="50" relative="1" as="geometry">
            <mxPoint x="1070" y="939.8" as="sourcePoint" />
            <mxPoint x="1280" y="902.3" as="targetPoint" />
          </mxGeometry>
        </mxCell>
        <mxCell id="C6lvempy2kkQ8w40UWus-107" value="Contains Shelves " style="shape=rhombus;perimeter=rhombusPerimeter;whiteSpace=wrap;html=1;align=center;" parent="1" vertex="1">
          <mxGeometry x="80" y="900" width="120" height="60" as="geometry" />
        </mxCell>
        <mxCell id="C6lvempy2kkQ8w40UWus-108" value="" style="endArrow=none;html=1;rounded=0;exitX=0.5;exitY=1;exitDx=0;exitDy=0;entryX=0.5;entryY=0;entryDx=0;entryDy=0;" parent="1" source="C6lvempy2kkQ8w40UWus-27" target="C6lvempy2kkQ8w40UWus-107" edge="1">
          <mxGeometry width="50" height="50" relative="1" as="geometry">
            <mxPoint x="172.5011809065795" y="559.9999875705378" as="sourcePoint" />
            <mxPoint x="479.98" y="659.6" as="targetPoint" />
          </mxGeometry>
        </mxCell>
        <mxCell id="C6lvempy2kkQ8w40UWus-109" value="" style="endArrow=none;html=1;rounded=0;exitX=0.5;exitY=1;exitDx=0;exitDy=0;entryX=0.381;entryY=0.033;entryDx=0;entryDy=0;entryPerimeter=0;shape=link;" parent="1" edge="1">
          <mxGeometry width="50" height="50" relative="1" as="geometry">
            <mxPoint x="142.5" y="960" as="sourcePoint" />
            <mxPoint x="313.34118090657967" y="1299.6799875705378" as="targetPoint" />
          </mxGeometry>
        </mxCell>
        <mxCell id="C6lvempy2kkQ8w40UWus-111" value="Supervises" style="shape=rhombus;perimeter=rhombusPerimeter;whiteSpace=wrap;html=1;align=center;" parent="1" vertex="1">
          <mxGeometry x="765" y="290.4" width="120" height="60" as="geometry" />
        </mxCell>
        <mxCell id="C6lvempy2kkQ8w40UWus-112" value="" style="endArrow=none;html=1;rounded=0;entryX=0;entryY=1;entryDx=0;entryDy=0;" parent="1" target="C6lvempy2kkQ8w40UWus-111" edge="1">
          <mxGeometry width="50" height="50" relative="1" as="geometry">
            <mxPoint x="1000" y="420" as="sourcePoint" />
            <mxPoint x="1070" y="370" as="targetPoint" />
          </mxGeometry>
        </mxCell>
        <mxCell id="C6lvempy2kkQ8w40UWus-114" value="" style="endArrow=none;html=1;rounded=0;exitX=0.191;exitY=-0.021;exitDx=0;exitDy=0;exitPerimeter=0;entryX=1;entryY=0.5;entryDx=0;entryDy=0;" parent="1" source="C6lvempy2kkQ8w40UWus-1" edge="1" target="C6lvempy2kkQ8w40UWus-111">
          <mxGeometry width="50" height="50" relative="1" as="geometry">
            <mxPoint x="670" y="130" as="sourcePoint" />
            <mxPoint x="720" y="80" as="targetPoint" />
          </mxGeometry>
        </mxCell>
        <mxCell id="C6lvempy2kkQ8w40UWus-116" value="&lt;table&gt;&lt;tbody&gt;&lt;tr&gt;&lt;td&gt;&lt;strong&gt;Works On&lt;/strong&gt;&lt;/td&gt;&lt;/tr&gt;&lt;/tbody&gt;&lt;/table&gt;&lt;table&gt;&lt;tbody&gt;&lt;tr&gt;&lt;td&gt;&lt;/td&gt;&lt;/tr&gt;&lt;/tbody&gt;&lt;/table&gt;" style="shape=rhombus;perimeter=rhombusPerimeter;whiteSpace=wrap;html=1;align=center;" parent="1" vertex="1">
          <mxGeometry x="570" y="340" width="120" height="60" as="geometry" />
        </mxCell>
        <mxCell id="C6lvempy2kkQ8w40UWus-117" value="" style="endArrow=none;html=1;rounded=0;exitX=1;exitY=0;exitDx=0;exitDy=0;entryX=0;entryY=0.5;entryDx=0;entryDy=0;" parent="1" source="C6lvempy2kkQ8w40UWus-27" target="C6lvempy2kkQ8w40UWus-116" edge="1">
          <mxGeometry width="50" height="50" relative="1" as="geometry">
            <mxPoint x="310" y="320" as="sourcePoint" />
            <mxPoint x="670" y="295" as="targetPoint" />
          </mxGeometry>
        </mxCell>
        <mxCell id="C6lvempy2kkQ8w40UWus-137" value="1" style="edgeLabel;html=1;align=center;verticalAlign=middle;resizable=0;points=[];" parent="C6lvempy2kkQ8w40UWus-117" vertex="1" connectable="0">
          <mxGeometry x="0.4023" y="5" relative="1" as="geometry">
            <mxPoint x="1" as="offset" />
          </mxGeometry>
        </mxCell>
        <mxCell id="C6lvempy2kkQ8w40UWus-118" value="" style="endArrow=none;html=1;rounded=0;exitX=1;exitY=0.5;exitDx=0;exitDy=0;entryX=0;entryY=0.5;entryDx=0;entryDy=0;shape=link;" parent="1" source="C6lvempy2kkQ8w40UWus-116" target="C6lvempy2kkQ8w40UWus-1" edge="1">
          <mxGeometry width="50" height="50" relative="1" as="geometry">
            <mxPoint x="760" y="287.5" as="sourcePoint" />
            <mxPoint x="960" y="275" as="targetPoint" />
          </mxGeometry>
        </mxCell>
        <mxCell id="C6lvempy2kkQ8w40UWus-138" value="M" style="edgeLabel;html=1;align=center;verticalAlign=middle;resizable=0;points=[];" parent="C6lvempy2kkQ8w40UWus-118" vertex="1" connectable="0">
          <mxGeometry x="-0.2351" y="2" relative="1" as="geometry">
            <mxPoint as="offset" />
          </mxGeometry>
        </mxCell>
        <mxCell id="C6lvempy2kkQ8w40UWus-119" value="1" style="text;html=1;align=center;verticalAlign=middle;resizable=0;points=[];autosize=1;strokeColor=none;fillColor=none;" parent="1" vertex="1">
          <mxGeometry x="970" y="390" width="30" height="30" as="geometry" />
        </mxCell>
        <mxCell id="C6lvempy2kkQ8w40UWus-120" value="1" style="text;html=1;align=center;verticalAlign=middle;resizable=0;points=[];autosize=1;strokeColor=none;fillColor=none;" parent="1" vertex="1">
          <mxGeometry x="840" y="330" width="30" height="30" as="geometry" />
        </mxCell>
        <mxCell id="C6lvempy2kkQ8w40UWus-122" value="1" style="text;html=1;align=center;verticalAlign=middle;resizable=0;points=[];autosize=1;strokeColor=none;fillColor=none;" parent="1" vertex="1">
          <mxGeometry x="350" y="485.4" width="30" height="30" as="geometry" />
        </mxCell>
        <mxCell id="C6lvempy2kkQ8w40UWus-123" value="1" style="text;html=1;align=center;verticalAlign=middle;resizable=0;points=[];autosize=1;strokeColor=none;fillColor=none;" parent="1" vertex="1">
          <mxGeometry x="955" y="450" width="30" height="30" as="geometry" />
        </mxCell>
        <mxCell id="C6lvempy2kkQ8w40UWus-124" value="M" style="text;html=1;align=center;verticalAlign=middle;resizable=0;points=[];autosize=1;strokeColor=none;fillColor=none;" parent="1" vertex="1">
          <mxGeometry x="275" y="1268" width="30" height="30" as="geometry" />
        </mxCell>
        <mxCell id="C6lvempy2kkQ8w40UWus-125" value="1" style="text;html=1;align=center;verticalAlign=middle;resizable=0;points=[];autosize=1;strokeColor=none;fillColor=none;" parent="1" vertex="1">
          <mxGeometry x="235" y="540" width="30" height="30" as="geometry" />
        </mxCell>
        <mxCell id="C6lvempy2kkQ8w40UWus-126" value="M" style="text;html=1;align=center;verticalAlign=middle;resizable=0;points=[];autosize=1;strokeColor=none;fillColor=none;" parent="1" vertex="1">
          <mxGeometry x="1250" y="897.7" width="30" height="30" as="geometry" />
        </mxCell>
        <mxCell id="C6lvempy2kkQ8w40UWus-127" value="1" style="text;html=1;align=center;verticalAlign=middle;resizable=0;points=[];autosize=1;strokeColor=none;fillColor=none;" parent="1" vertex="1">
          <mxGeometry x="385" y="1300" width="30" height="30" as="geometry" />
        </mxCell>
        <mxCell id="C6lvempy2kkQ8w40UWus-140" value="" style="endArrow=none;html=1;rounded=0;exitX=0.5;exitY=1;exitDx=0;exitDy=0;entryX=0.5;entryY=0;entryDx=0;entryDy=0;" parent="1" source="C6lvempy2kkQ8w40UWus-77" target="C6lvempy2kkQ8w40UWus-142" edge="1">
          <mxGeometry width="50" height="50" relative="1" as="geometry">
            <mxPoint x="660" y="640" as="sourcePoint" />
            <mxPoint x="590" y="630" as="targetPoint" />
          </mxGeometry>
        </mxCell>
        <mxCell id="C6lvempy2kkQ8w40UWus-142" value="HireDate" style="ellipse;whiteSpace=wrap;html=1;" parent="1" vertex="1">
          <mxGeometry x="630" y="585.4" width="80" height="70" as="geometry" />
        </mxCell>
        <mxCell id="C6lvempy2kkQ8w40UWus-143" value="" style="endArrow=none;html=1;rounded=0;exitX=0.5;exitY=1;exitDx=0;exitDy=0;" parent="1" target="C6lvempy2kkQ8w40UWus-144" edge="1">
          <mxGeometry width="50" height="50" relative="1" as="geometry">
            <mxPoint x="920" y="827.7" as="sourcePoint" />
            <mxPoint x="920" y="857.7" as="targetPoint" />
          </mxGeometry>
        </mxCell>
        <mxCell id="C6lvempy2kkQ8w40UWus-144" value="&lt;strong&gt;AmountPaid&lt;/strong&gt;" style="ellipse;whiteSpace=wrap;html=1;" parent="1" vertex="1">
          <mxGeometry x="960" y="857.7" width="90" height="70" as="geometry" />
        </mxCell>
        <mxCell id="C6lvempy2kkQ8w40UWus-145" value="" style="endArrow=none;html=1;rounded=0;entryX=0;entryY=0;entryDx=0;entryDy=0;" parent="1" target="C6lvempy2kkQ8w40UWus-146" edge="1">
          <mxGeometry width="50" height="50" relative="1" as="geometry">
            <mxPoint x="870" y="848.5699999999999" as="sourcePoint" />
            <mxPoint x="780" y="848.5699999999999" as="targetPoint" />
          </mxGeometry>
        </mxCell>
        <mxCell id="C6lvempy2kkQ8w40UWus-146" value="&lt;strong&gt;Due_Date&lt;/strong&gt;" style="ellipse;whiteSpace=wrap;html=1;" parent="1" vertex="1">
          <mxGeometry x="875" y="867.7" width="80" height="70" as="geometry" />
        </mxCell>
        <mxCell id="C6lvempy2kkQ8w40UWus-147" value="" style="endArrow=none;html=1;rounded=0;exitX=0.5;exitY=1;exitDx=0;exitDy=0;" parent="1" edge="1">
          <mxGeometry width="50" height="50" relative="1" as="geometry">
            <mxPoint x="830" y="832.3" as="sourcePoint" />
            <mxPoint x="830" y="862.3" as="targetPoint" />
          </mxGeometry>
        </mxCell>
        <mxCell id="C6lvempy2kkQ8w40UWus-148" value="Date_Borrowed" style="ellipse;whiteSpace=wrap;html=1;" parent="1" vertex="1">
          <mxGeometry x="780" y="862.3" width="90" height="70" as="geometry" />
        </mxCell>
        <mxCell id="6PSCIlSbrcdl5FAQ2fZ_-1" value="&lt;code&gt;Manager_Emp_Id&lt;/code&gt;" style="ellipse;shape=doubleEllipse;margin=3;whiteSpace=wrap;html=1;align=center;" parent="1" vertex="1">
          <mxGeometry x="80.00118090657952" y="379.99998757053754" width="140" height="50" as="geometry" />
        </mxCell>
        <mxCell id="6PSCIlSbrcdl5FAQ2fZ_-2" value="" style="endArrow=none;html=1;rounded=0;exitX=0.25;exitY=0;exitDx=0;exitDy=0;entryX=0.686;entryY=0.96;entryDx=0;entryDy=0;entryPerimeter=0;" parent="1" source="C6lvempy2kkQ8w40UWus-27" target="6PSCIlSbrcdl5FAQ2fZ_-1" edge="1">
          <mxGeometry width="50" height="50" relative="1" as="geometry">
            <mxPoint x="140" y="470" as="sourcePoint" />
            <mxPoint x="190" y="420" as="targetPoint" />
          </mxGeometry>
        </mxCell>
        <mxCell id="6PSCIlSbrcdl5FAQ2fZ_-3" value="Phone" style="ellipse;whiteSpace=wrap;html=1;" parent="1" vertex="1">
          <mxGeometry x="360" y="699.9999999999999" width="80" height="70" as="geometry" />
        </mxCell>
        <mxCell id="6PSCIlSbrcdl5FAQ2fZ_-4" value="" style="endArrow=none;html=1;rounded=0;exitX=0.15;exitY=0.045;exitDx=0;exitDy=0;exitPerimeter=0;entryX=1;entryY=1;entryDx=0;entryDy=0;" parent="1" source="C6lvempy2kkQ8w40UWus-34" target="6PSCIlSbrcdl5FAQ2fZ_-3" edge="1">
          <mxGeometry width="50" height="50" relative="1" as="geometry">
            <mxPoint x="390" y="790" as="sourcePoint" />
            <mxPoint x="440" y="740" as="targetPoint" />
          </mxGeometry>
        </mxCell>
        <mxCell id="6PSCIlSbrcdl5FAQ2fZ_-5" value="Phone" style="ellipse;whiteSpace=wrap;html=1;" parent="1" vertex="1">
          <mxGeometry x="980" y="274.9999999999999" width="80" height="70" as="geometry" />
        </mxCell>
        <mxCell id="6PSCIlSbrcdl5FAQ2fZ_-6" value="" style="endArrow=none;html=1;rounded=0;exitX=0.15;exitY=0.045;exitDx=0;exitDy=0;exitPerimeter=0;entryX=1;entryY=1;entryDx=0;entryDy=0;" parent="1" target="6PSCIlSbrcdl5FAQ2fZ_-5" edge="1">
          <mxGeometry width="50" height="50" relative="1" as="geometry">
            <mxPoint x="1092.5" y="420" as="sourcePoint" />
            <mxPoint x="1011.5" y="355" as="targetPoint" />
          </mxGeometry>
        </mxCell>
        <mxCell id="gjSm_xTrsxoRiY1hp_CM-1" value="" style="endArrow=none;html=1;rounded=0;exitX=0.5;exitY=0;exitDx=0;exitDy=0;shape=link;" edge="1" parent="1" source="C6lvempy2kkQ8w40UWus-83">
          <mxGeometry width="50" height="50" relative="1" as="geometry">
            <mxPoint x="990" y="530" as="sourcePoint" />
            <mxPoint x="1040" y="480" as="targetPoint" />
          </mxGeometry>
        </mxCell>
        <mxCell id="gjSm_xTrsxoRiY1hp_CM-2" value="M" style="edgeLabel;html=1;align=center;verticalAlign=middle;resizable=0;points=[];" vertex="1" connectable="0" parent="gjSm_xTrsxoRiY1hp_CM-1">
          <mxGeometry x="0.2697" y="2" relative="1" as="geometry">
            <mxPoint as="offset" />
          </mxGeometry>
        </mxCell>
        <mxCell id="gjSm_xTrsxoRiY1hp_CM-6" value="" style="verticalLabelPosition=bottom;verticalAlign=top;html=1;shape=mxgraph.basic.frame;dx=10;whiteSpace=wrap;" vertex="1" parent="1">
          <mxGeometry x="275" y="1298" width="100" height="60" as="geometry" />
        </mxCell>
        <mxCell id="gjSm_xTrsxoRiY1hp_CM-7" value="&lt;h2 style=&quot;text-wrap: wrap;&quot;&gt;Shelf&lt;/h2&gt;&lt;h2 style=&quot;text-wrap: wrap;&quot;&gt;&lt;/h2&gt;" style="text;html=1;align=center;verticalAlign=middle;resizable=0;points=[];autosize=1;strokeColor=none;fillColor=none;" vertex="1" parent="1">
          <mxGeometry x="290" y="1298" width="70" height="60" as="geometry" />
        </mxCell>
      </root>
    </mxGraphModel>
  </diagram>
</mxfile>
